<svg xmlns="http://www.w3.org/2000/svg" viewBox="0 0 365.36 70.7"><defs><style>.cls-1{fill:#44c2cd;}.cls-2{fill:#005485;}</style></defs><title>Zasób 1</title><g id="Warstwa_2" data-name="Warstwa 2"><g id="Layer_1" data-name="Layer 1"><path class="cls-1" d="M39.64,53.54a16.57,16.57,0,1,1-.37-16.47h9.38a25.08,25.08,0,1,0,.22,16.47Z"/><path class="cls-2" d="M31.62,17.56A16.58,16.58,0,1,1,32,34H22.62a25.08,25.08,0,1,0-.22-16.46Z"/><path class="cls-2" d="M78,49.91V.56l5.49.07,24,34.7V.63h7V49.91h-5.63L85.14,15.49V49.91Z"/><path class="cls-2" d="M138.14,50.12V7.81H123.22V.63H160.1V7.81H145.25v42.3Z"/><path class="cls-2" d="M179.39,24.92h8.31c6,0,8.94-4.29,8.94-8.59s-3-8.52-8.94-8.52H176.79V49.91h-7V.63H187.7c10.7,0,16,7.88,16,15.7A14.83,14.83,0,0,1,191,31.39l15.56,18.51h-9.22L179.39,28.3Z"/><path class="cls-2" d="M240.21,35.41H222.54c-1.9,4.5-4.36,10.42-5.91,14.5H209L228.74,0h5.21l19.78,49.91h-7.6Zm-15-6.69h12.25l-6.05-17.39Z"/><path class="cls-2" d="M266.25,7.74a23.76,23.76,0,0,1,17-7.32c11.26,0,20.13,7,22.95,18.16h-7c-2.6-7.39-8.66-11.12-15.91-11.12a16.76,16.76,0,0,0-12.11,5.28,18.19,18.19,0,0,0,0,25.2,17,17,0,0,0,28.44-6.48h7c-2.82,11.19-11.83,18.79-23.3,18.79a23.49,23.49,0,0,1-17-7.32,25.52,25.52,0,0,1,0-35.19Z"/><path class="cls-2" d="M322.5,7.46a24.9,24.9,0,0,1,35.55,0,25.32,25.32,0,0,1,0,35.62,24.9,24.9,0,0,1-35.55,0,25.32,25.32,0,0,1,0-35.62ZM353,12.53a18.12,18.12,0,0,0-12.74-5.35,17.67,17.67,0,0,0-12.6,5.35,18,18,0,0,0,0,25.48,17.67,17.67,0,0,0,12.6,5.35A18.12,18.12,0,0,0,353,12.53Z"/></g></g></svg>